<?xml version="1.0" encoding="utf-8"?>
<!-- Generator: Adobe Illustrator 25.3.0, SVG Export Plug-In . SVG Version: 6.00 Build 0)  -->
<svg version="1.1" id="Capa_1" xmlns="http://www.w3.org/2000/svg" xmlns:xlink="http://www.w3.org/1999/xlink" x="0px" y="0px"
	 viewBox="0 0 385 385" style="enable-background:new 0 0 385 385;" xml:space="preserve">
<style type="text/css">
	.st0{fill:#EBF3FE;}
	.st1{fill:#BDD7FA;}
	.st2{fill:#A2C8E0;}
	.st3{fill:#DC636E;}
	.st4{fill:#A1A9E1;}
	.st5{fill:#88B4D8;}
	.st6{fill:#9CC5FA;}
	.st7{fill:#DCE9FA;}
	.st8{fill:#8892D9;}
	.st9{fill:#4A80F5;}
	.st10{fill:#548FF8;}
	.st11{fill:#454045;}
	.st12{fill:#D94A54;}
	.st13{fill:#FEDCCD;}
	.st14{fill:#FECABD;}
	.st15{fill:#724C44;}
	.st16{fill:#835B51;}
</style>
<path d="M142.7,0.5c8.8,0,17.4,0,26.2,0c4,0.7,8.2,0.4,12.2,1c20,3,38.6,9.9,55.9,20.3c1.9,1.2,4.1,2.1,5.7,3.6
	c4.7,4.3,10.2,5.1,16.3,4.9c9.7-0.3,19.5-0.2,29.2,0c4.6,0.1,6,1.1,7.4,5.3c0,5.6-2.4,8-8.3,8.1c-11.6,0.2-23.2,0-34.8,0.1
	c-11.7,0-14.3,2.6-14.3,14.3c0,26,0,51.9,0,77.9c0,1.1,0,2.2,0.1,3.4c0.5,7.5,3.9,10.8,11.4,10.8c23.9,0.1,47.8,0,71.8,0
	c1,0,2,0,3,0c3.6,0.1,7.2,0.1,10.8-0.1c6.8-0.2,10.1-4.7,8.8-12.4c-4.7-27-4.5-54.4,0-81.4c1.3-7.9-1.9-12.2-8.7-12.5
	c-3-0.1-6,0-9-0.1c-2.9,0.1-5.7,0.1-8.6,0c-4.6-0.2-6.5-1.9-7.6-6.6c0.6-4.2,2.7-6.4,6.7-6.6c7.4-0.3,14.7-0.6,22.1,0.1
	c10.7,1,18.8,10.2,18.8,20.9c0.1,30.4,0.1,60.7,0,91.1c0,11.4-9.6,20.7-21.6,21.1c-5.9,0.2-11.7,0-17.6,0c-5.7,0-6,0.3-6.4,6.1
	c-0.6,9.9-2.6,19.6-5.2,29.1c-5.1,18.4-13.6,35.1-24.7,50.5c-1.9,2.6-1.6,6.2,0.6,8.4c2.1,2.1,4.2,4.2,6.4,6.4
	c1.3,1.3,2.5,1.9,4.3,1c9.2-4.6,17.2-2.4,24.2,4.5c3,2.9,5.8,5.8,10.3,6.1c2.1,0.2,3.7,1.9,5.3,3.4c11.7,11.7,23.5,23.5,35.2,35.3
	c2.2,2.2,3.8,4.6,4.1,7.8c0.2,2,1.1,3.5,2.5,4.9c0.7,0.7,1.4,1.4,2.1,2.1c3.5,3.6,6.7,7.4,7.1,12.7v7.5c-0.7,4.5-3,7.9-6.2,11
	c-6.1,5.9-12.1,11.9-17.9,18c-3.1,3.2-6.5,5.6-11,6.3c-2.5,0-5,0-7.5,0c-5.8-0.1-9-4.2-12.5-7.9c-2-2.1-4-3.7-6.8-4.1
	c-2.4-0.3-5.8-1.8-7.5-3.5c-12.2-12.2-24.4-24.4-36.5-36.6c-1.9-1.9-3.2-4.5-3.2-7.2c0-2.2-0.9-3.7-2.4-5.1c-1.5-1.5-3-3-4.5-4.5
	c-5.5-5.6-7-14-3.6-21c1.3-2.6,1.2-4.3-1-6.2c-2.3-2.1-4.4-4.4-6.6-6.6c-3.1-3.1-3.4-3.2-6.9-0.6c-11.2,8.4-23.4,15.2-36.4,20.4
	c-5.4,2.2-7.7,1.5-10.7-2.5c-1.3-4.6-0.5-6.7,3.9-8.7c7-3.3,14.2-6.1,20.9-10.1c23.6-14.1,42-33.1,55-57.4
	c8.2-15.5,13.5-31.9,15.7-49.3c0.3-2.5,0.2-5,0.7-7.5c0.3-1.7-0.4-2.6-2.2-2.7c-6-0.1-7-0.5-7.5,6.1c-1.1,14.2-4.8,27.8-10.7,40.8
	c-11.9,26.4-30.4,47.1-55.3,61.7c-16.8,9.9-34.9,15.8-54.4,17.5c-1.7,0.1-3.4,0.7-5.2,0.7c-2.5,0-3.1,1.4-3.2,3.6
	c-0.2,5.6,0.3,6,5.9,5.3c5-0.6,9.9-1.3,14.8-1.8c6.2-0.6,8.7,2.1,8.3,8.3c-1.1,3.1-3.5,4.3-6.5,4.9c-6,1.1-12.1,1.6-18.2,2.1
	c-3.3,0.3-4.2,1.5-4.2,4.6c0.1,14.5,0.1,28.9,0,43.4c0,5.3-1,10.4-3.9,15c-3.4,5.3-8.2,8.1-14.4,8.8H44.6c-7.4-1.3-12.1-6-15.2-12.5
	c-1.2-2.5-1.6-5.2-1.6-8c0-30,0-60,0-90c0-5.7,1.8-10.6,5.8-14.5c2.3-2.2,2.2-3.9,0.2-6.3C16,230.1,4.5,204.2,1.5,175
	c-4.6-46,7-87.2,37.8-122.2C63.4,25.3,93.6,8.6,129.4,1.9C133.8,1,138.3,1.5,142.7,0.5z"/>
<path class="st0" d="M183.1,274.8c-6.6,1.8-13.5,2.3-20.3,3.1c-2.9,0.3-3.1-0.9-3.2-3.3c-0.2-10.9-6.9-19-17.2-21
	c-1.7-0.3-3.5-0.3-5.2-0.3c-17.1,0-34.2,0-51.3,0c-2,0-3.5-0.5-5.1-1.8c-26.7-21.8-42.3-49.7-45.4-84.2
	C30,105.2,70.7,49.8,131.9,36.9c32.7-6.9,63.3-0.7,91.5,17.5c2.1,1.3,2.7,2.7,2.7,5.1c-0.1,26,0.4,52-0.2,78
	c-0.4,16.2,10,26.3,25.3,25.1c3.2-0.3,6.5,0,9.7,0.1c1.5,1.9,1,4.1,0.8,6.1c-3.2,27.4-13.5,51.6-31.8,72.4
	c-12.3,14-27,24.6-43.9,32.1C185,273.7,184.1,274.4,183.1,274.8z"/>
<path class="st1" d="M294.8,35.1c0.9,1.2,2,1.5,3.5,1.5c4.2-0.1,8.4-0.1,12.6-0.1c0.8,4.5,2.5,5.9,7,6c2.7,0,5.4,0.1,8.2,0.1
	c1.9,0.8,2.6,2.6,3.2,4.4c0.9,2.8,1,5.6,1,8.5c0,27.6,0,55.1,0,82.7c0,2.9-0.1,5.7-1.1,8.5c-0.8,2.3-2.1,3.9-4.6,4.4
	c-25.8,0-51.6,0.1-77.4,0.1c-6,0-9.8-4-9.9-10.3c-0.1-6,0-12,0-18c0-22.7,0-45.4,0-68.1c0-8.9,3.4-12.2,12.2-12.2
	c12.7,0,25.4,0,38.1,0C293.1,42.5,295,40.6,294.8,35.1z"/>
<path class="st2" d="M128.5,373.1c-26.3,0-52.6,0.1-78.8,0.1c-5.7,0-9.6-4-9.6-9.8C40,333.7,40,304,40,274.3c0-5.8,3.9-9.7,9.6-9.8
	c26.3,0,52.6,0,78.8,0.1c3.3,1.8,3.9,5.1,4,8.3c0.3,12.4,0.2,24.8,0.1,37.3c0,1.1-0.2,2.2-0.9,3.2c-1.9,1.4-4.1,1-6.1,1
	c-18.4,0-36.9,0-55.3,0c-1.7,0-3.5-0.1-5.2,0.3c-2.2,0.5-4,1.7-3.9,4.3c0.1,2.6,1.9,3.6,4.1,4.1c1.6,0.4,3.2,0.2,4.8,0.2
	c18.4,0,36.9,0,55.3,0c2.1,0,4.3-0.3,6.2,0.9c1.1,1.4,1.1,3,1.1,4.6c0,11.5,0.1,22.9,0,34.4C132.5,367,132.2,370.8,128.5,373.1z"/>
<path class="st3" d="M64.8,253.2c-4.1,0-8.2-0.1-12.3,0c-1.8,0.1-3-0.6-4.2-1.9c-17.4-20-28.9-43-33.4-69.2
	c-7-40.2,1.1-77.3,25-110.4C62.7,40.2,93.6,20.7,132.1,14c35.4-6.2,68.6,0.4,99.5,18.8c2.7,1.6,3.4,2.8,0.5,4.7
	c-0.5,0.3-0.8,0.9-1.3,1.4c-1.4,1.3-1.6,4.3-3.5,4.3c-1.7,0-3.4-1.8-5.2-2.8c-78.4-44.8-178.8,1.1-195.8,90
	c-8.8,45.8,4,85.9,36.3,119.6c0.8,0.9,2,1.4,3,2.1C65.4,252.5,65.1,252.9,64.8,253.2z"/>
<path class="st3" d="M203.7,298.8c-4.1,1.1-8.2,2.3-12.4,3.1c-1.8,0.4-1.2,1.9-2,2.7c-0.5-5.5-2.5-7.2-8.1-6.2c-6,1-12.1,1.5-18.2,2
	c-2.2,0.2-3.3-0.2-3.3-2.9c0-8.1-0.2-8.1,8.7-8.9c28.2-2.5,53.1-12.9,74.4-31.5c27.2-23.6,42.7-53.4,46-89.5
	c0.5-5.2,0.4-5.2,6.2-5.2c5.5,0,5.7,0,5,5.5c-6.8,58.4-37.2,99.2-91,122.6C203.8,292.8,202.9,294.1,203.7,298.8z"/>
<path class="st4" d="M348.5,333.5c-8.8,8.5-17.5,17-26.5,25.8c-10.6-10.7-21.6-21.8-32.6-32.8c-1.2-1.2-1.1-1.8,0.1-3
	c8.3-8.1,16.5-16.3,24.7-24.5c1.7-1.1,2.6,0.3,3.4,1.2c10,9.9,19.9,19.8,29.7,29.8C348.3,330.9,349.5,331.9,348.5,333.5z"/>
<path class="st5" d="M131.5,313.1c0-12.2-0.1-24.3,0.1-36.5c0.1-4.4-0.7-8.3-3.1-12c3,0,6-0.1,9-0.1c7.2,0,11,3.8,11.1,11.1
	c0.1,6.2,0,12.5,0,18.7c0,22.2,0,44.4,0,66.6c0,8.8-3.5,12.3-12.2,12.2c-2.6,0-5.2-0.1-7.8-0.1c2.3-3.7,3.1-7.7,3.1-12
	c-0.2-12.2-0.1-24.3-0.1-36.5c0-0.2,0.1-0.5,0.2-0.7c4.5-5,4.5-5,0-10C131.5,313.6,131.5,313.4,131.5,313.1z"/>
<path class="st6" d="M324.6,151.1c3.6-2.1,4.4-5.7,4.4-9.3c0.1-29.9,0.1-59.8,0.1-89.7c0-3.4-1.3-6.5-3-9.5c3.4,0,6.7-0.2,10.1-0.1
	c5.5,0.1,9.4,3.8,9.6,9.4c0.2,5.4,0.1,10.7,0.1,16.1c0,23.7,0,47.4,0,71.1c0,8.8-3.4,12.1-12.2,12.1
	C330.6,151.2,327.6,151.2,324.6,151.1z"/>
<path class="st7" d="M183.1,274.8c2.6-3.5,6.9-4.2,10.5-6.1c12-6.3,22.8-14.3,32-24.1c18.1-19.2,29.8-41.7,33.9-68
	c0.7-4.7,1.7-9.3,1.4-14c4.9,0,9.7,0,14.6-0.2c1.8,0,2.6,0.3,2.4,2.4c-3.4,37.4-20.2,67.4-50.3,89.8
	C214.3,264.6,199.4,271.4,183.1,274.8z"/>
<path class="st8" d="M348.5,333.5c0-1.3-0.9-2-1.7-2.8c-10.1-10.1-20.1-20.1-30.2-30.2c-0.7-0.7-1.4-1.5-2.5-1.5
	c3.1-3.2,6.3-6.4,9.4-9.6c1-1.1,1.7-1.4,3-0.2c10.6,10.7,21.3,21.4,32,32c1.1,1.1,0.9,1.7-0.1,2.7
	C355.1,327.1,351.8,330.3,348.5,333.5z"/>
<path class="st9" d="M373.2,345.4c0,2-1,3.7-2.5,5.2c-6.7,6.7-13.3,13.4-20.1,20.1c-3.5,3.5-6.9,3.4-10.5,0
	c-6.5-6.1-6.5-6.1-0.2-12.5c7.4-7.4,14.8-14.8,22.1-22.3c1.6-1.7,2.7-2.1,4.4-0.1c1.4,1.7,3.1,3.2,4.7,4.8
	C372.5,342,373.2,343.5,373.2,345.4z"/>
<path class="st10" d="M306.8,290.1c-7.3,7.4-14.7,14.9-22,22.3c-0.9,1-1.7,1.3-2.7,0.1c-1.8-1.9-3.8-3.6-5.4-5.6
	c-2.3-2.7-2.3-6.1,0.3-8.8c6.3-6.4,12.7-12.6,19-18.9C300.2,282.2,303.8,285.8,306.8,290.1z"/>
<path class="st11" d="M270.3,262.5c0.6,0.5,1.1,0.9,1.6,1.5c3.3,3.3,6.4,6.6,9.8,9.7c1.5,1.4,1.2,2.2-0.1,3.5c-6,6.3-5.9,6.3-12,0.3
	c-0.6-0.6-1.3-1.2-1.8-1.9c-1.6-2-5.4-3.7-4.8-5.6c0.8-2.7,4-4.6,6.2-6.8C269.6,262.9,269.9,262.7,270.3,262.5z"/>
<path class="st9" d="M306.8,290.1c-4-3.2-7.6-6.8-10.8-10.9c4.9-5.7,8-5.9,13.2-0.7c4.7,4.7,4.7,4.7,0.1,9.3
	C308.5,288.6,307.6,289.3,306.8,290.1z"/>
<path d="M156.4,234.5c-13.5,0-26.9,0-40.4,0c-10.8,0-17.4-6.7-17.5-17.5c0-13.4,0-26.7,0-40.1c0.1-17.6,11.5-31.7,28.6-35.3
	c2.4-0.5,2.5-1.1,1.5-3.1c-1.6-3.3-2.6-6.8-2.6-10.4c0-9.1-1.3-18.3,1-27.2c3.6-14.5,17.4-24.2,32.2-22.9
	c14.8,1.2,26.9,13.1,27.8,28c0.6,9.2,1.2,18.5-0.8,27.6c-0.5,2.5-1.5,4.9-2.3,7.3c2.5,0.7,5,1.3,7.4,2.2c13.7,5,23.1,18,23.3,32.6
	c0.2,14.2,0.1,28.5,0,42.7c-0.1,9.1-7.1,16-16.2,16.1C184.3,234.6,170.4,234.5,156.4,234.5z"/>
<path d="M323.3,77.9c0.1,2.3-0.8,3.7-2,5.1c-9.8,10.8-19.6,21.7-29.4,32.4c-3.4,3.7-5.7,3.9-9.7,0.8c-6.4-5-12.8-10-19.2-15
	c-3.5-2.8-4.3-5.8-2.2-8.7c2.1-2.9,5.6-2.9,9.2-0.1c4.4,3.4,8.9,6.8,13.2,10.4c2.1,1.7,3.3,2,5.3-0.3c7.8-8.9,15.8-17.6,23.8-26.4
	c0.8-0.8,1.5-1.7,2.4-2.3c1.8-1.2,3.7-1.3,5.7-0.3C322.3,74.5,323.3,76.1,323.3,77.9z"/>
<path d="M131.5,313.1c2.6,1.1,4.5,2.6,4.5,5.7c0,3.1-2,4.6-4.5,5.7c-21.2,0-42.3,0-63.5-0.1c-1.1,0-2.2,0.1-3.4,0
	c-3.2-0.3-5.3-2.7-5.1-5.8c0.2-3.2,2-5,5.1-5.4c2.1-0.2,4.2-0.1,6.3-0.1C91.1,313.2,111.3,313.2,131.5,313.1z"/>
<path d="M90.7,335.7c8.2,0,16.4,0,24.7,0c4.2,0,6.5,2,6.6,5.5c0.1,3.6-2.3,5.7-6.7,5.7c-16.3,0-32.6,0-48.9,0
	c-4.4,0-6.8-2.1-6.8-5.7c0-3.6,2.4-5.5,6.9-5.6C74.5,335.7,82.6,335.7,90.7,335.7z"/>
<path d="M85.8,290.7c6.6,0,13.2,0,19.8,0c4.3,0,7,2.2,6.9,5.6c0,3.4-2.7,5.6-7,5.6c-13.1,0-26.2,0-39.3,0c-4.4,0-6.8-2.1-6.8-5.6
	c0-3.6,2.4-5.6,6.9-5.6C72.8,290.7,79.3,290.7,85.8,290.7z"/>
<path class="st3" d="M185.4,223.1c-23.4,0-46.9,0.1-70.3,0.1c-3.4,0-5.3-1.9-5.3-5.4c-0.1-14.2-0.3-28.5,0.1-42.7
	c0.3-12.3,10.7-24.7,28.8-23.1c1.9,0.2,1.4,1.1,1.3,2.3c-1.2,9.8-2.3,19.6-3.7,29.3c-0.9,6.4,0.7,11.6,5.8,15.6
	c2.7,2.2,5.4,4.5,8.1,6.6c3.9,3,8.5,3.1,12.5,0.1c3.4-2.5,6.7-5.2,9.9-8c4.1-3.6,5.1-8.3,4.4-13.6c-1.3-9.9-2.5-19.8-3.8-29.7
	c-0.2-1.5-0.7-2.9,1.7-2.4c7.8,4.7,11.8,12,12.1,20.7c0.6,15.3,0.2,30.7,0.1,46.1C187.2,220.5,187.2,222.3,185.4,223.1z"/>
<path class="st12" d="M185.4,223.1c1-1.4,0.7-3.1,0.7-4.7c0-13.8-0.2-27.6,0.1-41.4c0.2-9.1-3.1-16.4-9.3-22.6
	c-0.7-0.7-1.3-1.5-2-2.2c17.6-1,28.4,9.2,28.4,26.7c0,12.2,0,24.4,0,36.7c0,6.6-1.2,7.7-7.9,7.7
	C192.1,223.2,188.7,223.2,185.4,223.1z"/>
<path class="st0" d="M165.8,186.1c0.6,3-1.4,4-2.9,5.2c-6.3,5.2-6.2,5.1-12.6,0.1c-2.6-2-3.2-4.2-2.7-7.4c1.3-8.4,2.3-16.8,3.2-25.2
	c0.3-2.4,1-3,3.2-2.5c0.9,0.2,2,0.3,3,0.1c4.3-1.1,5.5,0.9,5.9,4.9C163.6,169.8,164.8,178.2,165.8,186.1z"/>
<path class="st13" d="M150,143.9c-7.8-2.7-11.8-8.3-12.7-16.3c-1.2-10.8-1.2-10.9,9.6-10.8c4.1,0,8.2,0.1,12.3,0.1
	c3.2,7,0.2,21.1-5.5,25.9C152.6,143.7,151.5,144.4,150,143.9z"/>
<path class="st14" d="M150,143.9c4.4-1.6,6.1-5.5,7.7-9.4c2.4-5.7,1.4-11.7,1.5-17.6c4.8,0,9.7-0.1,14.5-0.1c1.1,0,2.4-0.3,2.4,1.5
	c-0.1,4.9,0.5,10-1.4,14.7C170.7,142.8,159.7,147.7,150,143.9z"/>
<path class="st15" d="M150,90.4c10.3-4.1,22.3,1.9,25.2,12.5c0.6,2.2-0.1,2.6-2,2.6c-11.1,0-22.2,0-33.3,0c-1.8,0-3.2-0.1-1.8-2.5
	c5.5,1.3,11.1,0.5,16.6,0.6c2.3,0.1,2.7-1.3,2-3.2c-1-2.9-2.5-5.4-4.6-7.6C151.4,92.1,150.4,91.5,150,90.4z"/>
<path class="st16" d="M150,90.4c3.8,1.7,8.5,8.5,8.4,12.3c0,1.4-0.5,2.1-2,2.1c-5.4,0-10.9,0-16.3,0c-1.2,0-1.8-0.6-2-1.7
	C139.8,96.7,143.7,92.5,150,90.4z"/>
</svg>
