<?xml version="1.0" encoding="utf-8"?>
<!-- Generator: Adobe Illustrator 25.3.0, SVG Export Plug-In . SVG Version: 6.00 Build 0)  -->
<svg version="1.1" id="Capa_1" xmlns="http://www.w3.org/2000/svg" xmlns:xlink="http://www.w3.org/1999/xlink" x="0px" y="0px"
	 viewBox="0 0 513 513" style="enable-background:new 0 0 513 513;" xml:space="preserve">
<style type="text/css">
	.st0{fill:#EB586E;}
	.st1{fill:#0C0607;}
	.st2{fill:#EFF1EF;}
	.st3{fill:#6EC4D8;}
	.st4{fill:#F49A37;}
</style>
<path class="st0" d="M236.9,0.4c12.7,0,25.3,0,38,0c1.1,1.4,2.8,0.8,4.2,1c8.6,0.7,17.2,1.8,25.7,3.5
	C359.3,15.5,405.8,41,443.8,81.7c36.1,38.6,58.1,84.2,66.2,136.6c1,6.7,0.9,13.5,2.8,20c0,12.7,0,25.3,0,38c-1.1,0.6-0.9,1.7-1,2.6
	c-2.8,30.8-10.6,60.2-24.1,88c-12,24.7-27.1,47.3-46.7,66.7c-0.1-2-0.2-4-0.2-6c0-110.6,0-221.2,0-331.9c0-11.1-4.4-15.5-15.3-15.5
	c-26.2,0-52.3,0-78.5,0c-2.8,0-4.3-0.6-5.5-3.5c-3.2-7.5-9.2-11.6-17.6-11.6c-6.5,0-13-0.2-19.5,0c-3.1,0.1-4.5-0.9-5.6-3.9
	c-6.6-17.8-23.2-29.8-40.8-30c-19.4-0.2-35.9,11.2-42.8,30c-1.1,3-2.4,4.1-5.6,4c-6.5-0.2-13-0.1-19.5-0.1
	c-8.2,0-14.1,3.9-17.3,11.2c-1.4,3.2-3.1,3.9-6.3,3.9c-26.5-0.1-53,0-79.5-0.1c-3.6,0-6.9,0.6-9.7,3.2c-3.8,3.5-4.3,8-4.3,12.8
	c0,110.5,0,220.9,0,331.4c0,2-0.1,4-0.2,6c-0.6-0.5-1.3-1-1.9-1.6c-36.4-38.7-58.7-84.3-67.1-136.7c-1-6-0.5-12.2-2.9-17.9
	c0-13.7,0-27.3,0-41c1.1-0.6,0.9-1.7,1-2.6c0.8-9.1,2.2-18.1,3.9-27.1C25.6,101.9,113.2,18.3,218.9,3.2
	C224.9,2.3,231.1,2.6,236.9,0.4z"/>
<path class="st1" d="M72.8,433.5c0.1-2,0.2-4,0.2-6c0-110.5,0-220.9,0-331.4c0-4.8,0.5-9.3,4.3-12.8c2.8-2.6,6-3.2,9.7-3.2
	c26.5,0.1,53,0,79.5,0.1c3.2,0,4.9-0.7,6.3-3.9c3.2-7.3,9.1-11.2,17.3-11.2c6.5,0,13-0.2,19.5,0.1c3.2,0.1,4.5-0.9,5.6-4
	c6.8-18.7,23.3-30.1,42.8-30c17.6,0.2,34.2,12.2,40.8,30c1.1,3.1,2.5,4,5.6,3.9c6.5-0.2,13-0.1,19.5,0c8.4,0,14.3,4.1,17.6,11.6
	c1.3,2.9,2.7,3.5,5.5,3.5c26.2-0.1,52.3-0.1,78.5,0c11,0,15.3,4.4,15.3,15.5c0,110.6,0,221.2,0,331.9c0,2,0.1,4,0.2,6
	c-0.1,20.7-0.3,41.3-0.1,62c0.1,7.6-2.1,13.2-9,16.7c-116.6,0-233.2,0-349.9,0c-7-3.3-9.2-9-9.1-16.5
	C73.1,474.9,72.9,454.2,72.8,433.5z M113.2,295.7c0,54.8,0.1,109.6-0.1,164.4c0,4.4,1,5.5,5.5,5.5c92.3-0.1,184.5-0.1,276.8,0
	c4.1,0,5.3-0.9,5.3-5.2c-0.2-34.8-0.1-69.6-0.1-104.4c0-74.8,0-149.6,0.1-224.3c0-4.1-1-5.3-5.2-5.3c-16,0.3-32,0.2-48,0
	c-3.2,0-4.7,0.4-4.6,4.2c0.2,7.3-2.2,9.4-9.6,9.4c-51,0-101.9,0-152.9,0c-7.3,0-9.6-2.1-9.5-9.5c0.1-3.4-1.1-4.2-4.3-4.1
	c-16,0.1-32,0.2-48,0c-4.4-0.1-5.6,1-5.6,5.5C113.2,186.5,113.2,241.1,113.2,295.7z M425.9,296.7c0-65.3-0.1-130.6,0.1-195.9
	c0-5.4-1.6-6.4-6.6-6.3c-21,0.3-42,0.1-63,0.1c-4.3,0-9.9-1.8-12.6,0.7c-2.9,2.8-0.5,8.5-1,12.9c-0.4,3.3,0.9,4.2,4.1,4.1
	c17-0.2,34-0.1,51-0.1c12.3,0,16.8,4.5,16.8,16.8c0,111.1,0,222.2,0,333.4c0,13-4.6,17.7-17.7,17.7c-87.1,0-174.3,0-261.4,0
	c-7.3,0-14.7,0.1-22,0c-9.2-0.2-14.8-5.5-14.8-13.9c0-113.1-0.1-226.2-0.1-339.4c0-9.4,5.1-14.5,14.4-14.5c14.8,0,29.7,0.1,44.5-0.1
	c4.1,0,9.4,1.8,12-0.8c2.6-2.6,0.4-7.9,0.9-12c0.5-4-1.1-5-5-5c-24.3,0.2-48.6,0.2-73,0c-4.4,0-5,1.4-5,5.4
	c0.1,130.9,0.1,261.9-0.1,392.8c0,4.5,1.2,5.4,5.5,5.4c53.3-0.2,106.6-0.3,159.9-0.3c55.8,0,111.6,0.1,167.4,0.3
	c4.4,0,5.5-1,5.5-5.5C425.8,427.3,425.9,362,425.9,296.7z M256.9,125.4c22.5,0,45-0.1,67.4,0.1c3.3,0,4.6-0.7,4.5-4.3
	c-0.2-11.3-0.1-22.6-0.1-34c0-6-1.8-7.8-7.7-7.8c-8.5,0-17,0-25.5,0c-5.7,0-7.6-1.6-8.8-7.2c-1.3-6.1-3.7-11.7-8-16.3
	c-8-8.6-18-11.9-29.4-8.9c-12.6,3.4-19.5,12.5-22.4,24.8c-1.4,6-3,7.6-9,7.6c-8.3,0-16.7,0-25,0c-6.3,0-8,1.6-8,7.9
	c0,11.2,0.1,22.3-0.1,33.5c-0.1,3.7,0.8,4.8,4.6,4.7C211.9,125.3,234.4,125.4,256.9,125.4z"/>
<path class="st2" d="M113.2,295.7c0-54.6,0.1-109.3-0.1-163.9c0-4.5,1.2-5.5,5.6-5.5c16,0.3,32,0.2,48,0c3.2,0,4.3,0.7,4.3,4.1
	c-0.1,7.4,2.2,9.5,9.5,9.5c51,0,101.9,0,152.9,0c7.4,0,9.8-2.2,9.6-9.4c-0.1-3.8,1.4-4.3,4.6-4.2c16,0.1,32,0.2,48,0
	c4.2-0.1,5.2,1.2,5.2,5.3c-0.1,74.8-0.1,149.6-0.1,224.3c0,34.8-0.1,69.6,0.1,104.4c0,4.2-1.2,5.2-5.3,5.2
	c-92.3-0.1-184.5-0.1-276.8,0c-4.4,0-5.5-1.1-5.5-5.5C113.2,405.3,113.2,350.5,113.2,295.7z M256.9,332c18.3,0,36.6,0,55,0
	c7.4,0,10-2.6,10-9.8c0-11,0.1-22,0-33c-0.1-15.5-10.4-28.3-25.6-32c-7.2-1.8-14.6-0.4-21.9-0.9c-4.4-0.3-7.5,1-10.2,4.6
	c-4.8,6.2-10.6,6-15-0.4c-2.1-3.1-4.7-4.3-8.4-4.2c-5.3,0.2-10.7,0-16,0.1c-18.3,0.2-32.8,14.7-32.8,33c0,10.7,0,21.3,0,32
	c0,8.4,2.2,10.7,10.5,10.7C220.6,332,238.7,332,256.9,332z M253.6,250.4c15.7,0.1,26.5-6.7,32.4-18.2c0.8-1.6,1.3-3.4,2.9-4.6
	c5.7-4.3,7.4-10.4,7.2-17.2c-0.1-2,0.1-3.9,0.9-5.8c5.8-14.8,1.9-30.8-10.2-42.2c-10.7-10.1-23.8-11.6-39.1-4.2
	c-2.2,1.1-4.2,1.4-6.7,0.8c-10.1-2.3-18.7,1.8-23,11.1c-3.9,8.4-4.3,17.3-3.5,26.3c0.4,4.5,3.1,8.5,3.1,12.9
	c-0.1,7.4,1.5,13.7,7.6,18.6c1.2,1,1.7,2.8,2.5,4.2C233.8,243.8,243.5,249.9,253.6,250.4z M256.5,406.1c38,0,76,0,113.9,0
	c2.2,0,4.3,0.1,6.4-0.8c3.2-1.6,4.6-4.1,4.2-7.7c-0.4-3.6-2.6-5.6-6.1-6.3c-1-0.2-2-0.1-3-0.1c-76.8,0-153.6,0-230.4,0
	c-0.8,0-1.7-0.1-2.5,0c-3.5,0.5-5.8,2.4-6.3,6c-0.5,3.7,0.9,6.4,4.4,8c2.1,0.9,4.2,0.7,6.4,0.7C181.2,406.1,218.8,406.1,256.5,406.1
	z M256.9,365.2c37.8,0,75.6,0,113.4,0c1.3,0,2.7,0.1,4-0.1c4.1-0.6,6.7-2.9,6.8-7.3c0.1-4.4-2.5-6.7-6.6-7.5c-1.3-0.3-2.7-0.1-4-0.1
	c-75.8,0-151.6,0-227.3,0c-1.7,0-3.4-0.1-5,0.3c-3.8,1.1-5.9,3.7-5.5,7.8c0.3,3.9,2.7,5.9,6.3,6.6c1.4,0.3,3,0.1,4.5,0.1
	C181.3,365.2,219.1,365.2,256.9,365.2z M256.3,446.5c37.6,0,75.3,0,112.9,0c2,0,4,0,6-0.2c3.9-0.5,5.8-3.1,5.9-6.8
	c0.1-4-1.9-6.6-6-7.2c-1.6-0.2-3.3-0.2-5-0.2c-75.4,0-150.8,0-226.3,0c-8.1,0-11.2,2.1-11.2,7.3c0.1,5.2,3.2,7.2,11.3,7.2
	C181.4,446.5,218.8,446.5,256.3,446.5z"/>
<path class="st3" d="M425.9,296.7c0,65.3,0,130.6,0.1,195.9c0,4.4-1.1,5.5-5.5,5.5c-55.8-0.2-111.6-0.3-167.4-0.3
	c-53.3,0-106.6,0.1-159.9,0.3c-4.3,0-5.5-0.9-5.5-5.4c0.2-130.9,0.2-261.9,0.1-392.8c0-3.9,0.7-5.4,5-5.4c24.3,0.2,48.6,0.2,73,0
	c3.9,0,5.5,1,5,5c-0.5,4.1,1.7,9.4-0.9,12c-2.6,2.6-7.9,0.7-12,0.8c-14.8,0.1-29.7,0-44.5,0.1c-9.3,0-14.4,5.1-14.4,14.5
	c0,113.1,0,226.2,0.1,339.4c0,8.4,5.6,13.7,14.8,13.9c7.3,0.1,14.7,0,22,0c87.1,0,174.3,0,261.4,0c13,0,17.7-4.7,17.7-17.7
	c0-111.1,0-222.2,0-333.4c0-12.3-4.5-16.8-16.8-16.8c-17,0-34-0.1-51,0.1c-3.2,0-4.5-0.8-4.1-4.1c0.5-4.4-1.9-10.1,1-12.9
	c2.7-2.6,8.3-0.7,12.6-0.7c21-0.1,42,0.1,63-0.1c5-0.1,6.6,0.9,6.6,6.3C425.8,166.1,425.9,231.4,425.9,296.7z"/>
<path class="st4" d="M256.9,125.4c-22.5,0-45-0.1-67.4,0.1c-3.8,0-4.7-1.1-4.6-4.7c0.2-11.2,0.1-22.3,0.1-33.5c0-6.3,1.7-7.9,8-7.9
	c8.3,0,16.7,0,25,0c6,0,7.6-1.5,9-7.6c2.9-12.4,9.8-21.5,22.4-24.8c11.4-3,21.4,0.3,29.4,8.9c4.3,4.6,6.7,10.2,8,16.3
	c1.2,5.6,3.1,7.2,8.8,7.2c8.5,0,17,0,25.5,0c5.9,0,7.6,1.8,7.7,7.8c0,11.3-0.1,22.6,0.1,34c0.1,3.7-1.2,4.3-4.5,4.3
	C301.8,125.4,279.4,125.4,256.9,125.4z M232.9,78.5c0,14.1,10.7,25.5,23.9,25.4c13.5-0.1,24.1-11.2,24.1-25.3
	c0-13.7-10.6-24.9-23.7-25.1C243.9,53.3,232.9,64.6,232.9,78.5z"/>
<path class="st1" d="M256.9,332c-18.2,0-36.3,0-54.5,0c-8.3,0-10.5-2.3-10.5-10.7c0-10.7,0-21.3,0-32c0.1-18.3,14.5-32.9,32.8-33
	c5.3,0,10.7,0.1,16-0.1c3.7-0.1,6.2,1.1,8.4,4.2c4.4,6.4,10.2,6.7,15,0.4c2.8-3.6,5.9-5,10.2-4.6c7.3,0.6,14.6-0.8,21.9,0.9
	c15.2,3.7,25.5,16.5,25.6,32c0.1,11,0,22,0,33c0,7.2-2.6,9.8-10,9.8C293.5,332,275.2,332,256.9,332z M256.5,317.2
	c15.5,0,31,0,46.5,0c2.1,0,4.3,0.6,4.2-3c-0.2-8.8,0.1-17.7-0.3-26.5c-0.4-9-7.1-15.7-16.1-16.7c-4.1-0.4-8.3-0.2-12.5-0.4
	c-2.3-0.1-4,0.7-5.7,2.3c-10.1,9.2-22.7,9.1-32.6-0.2c-1.3-1.2-2.5-2.1-4.3-2.1c-4.5,0.2-9,0-13.5,0.5c-8,0.9-14.4,7.2-15.5,15.1
	c-1.2,8.8-0.1,17.6-0.6,26.4c-0.2,3.9,1.4,4.6,4.9,4.5C226.2,317.1,241.4,317.2,256.5,317.2z"/>
<path class="st1" d="M253.6,250.4c-10-0.5-19.8-6.6-26-18.3c-0.8-1.4-1.3-3.2-2.5-4.2c-6-4.8-7.6-11.2-7.6-18.6
	c0-4.4-2.7-8.4-3.1-12.9c-0.7-9.1-0.3-18,3.5-26.3c4.3-9.3,12.9-13.4,23-11.1c2.4,0.6,4.5,0.3,6.7-0.8c15.3-7.3,28.4-5.9,39.1,4.2
	c12.1,11.4,16,27.4,10.2,42.2c-0.8,1.9-0.9,3.8-0.9,5.8c0.2,6.8-1.5,12.9-7.2,17.2c-1.6,1.2-2.1,3-2.9,4.6
	C280.1,243.7,269.2,250.5,253.6,250.4z M257.7,236.2c6.9-0.7,12.5-4.4,15.7-11.3c1.7-3.7,2.4-7.9,6.9-9.7c1.5-0.6,1.6-2.8,1.5-4.5
	c-0.1-1.9-6.4-10.1-8.3-10.5c-3.4-0.8-6.8-1.7-9.7-3.6c-1.5-1-2.7-0.7-4.1,0.2c-6.3,3.9-13,6.3-20.5,6.5c-3.4,0.1-6.1,2.6-7.1,5.9
	c-0.7,2.4-0.8,5.3,2,6.6c3,1.4,4.1,3.9,5.2,6.8C242.1,231,249.4,236.4,257.7,236.2z M283.7,186.5c-1.1-12.4-12.8-20.6-24.7-17.1
	c-3.4,1-6.4,2.7-9.4,4.4c-2.2,1.3-4.4,2.2-7.1,1.1c-9.7-4-11.7-0.5-12.9,7.8c-0.3,2.2-0.8,4.4-0.3,6.7c1.9-0.4,3.6-1.1,5.2-0.9
	c8.8,1.5,15.8-1.9,22.2-7.6c4.2-3.7,8-3.6,11.6,0.7c2.6,3,5.7,4.3,9.6,4.5C279.8,186.1,281.7,186.3,283.7,186.5z"/>
<path class="st1" d="M256.5,406.1c-37.6,0-75.3,0-112.9,0c-2.1,0-4.3,0.2-6.4-0.7c-3.5-1.6-4.9-4.3-4.4-8c0.5-3.6,2.8-5.5,6.3-6
	c0.8-0.1,1.7,0,2.5,0c76.8,0,153.6,0,230.4,0c1,0,2-0.1,3,0.1c3.4,0.7,5.7,2.6,6.1,6.3c0.4,3.5-1,6.1-4.2,7.7c-2,1-4.2,0.8-6.4,0.8
	C332.4,406.1,294.5,406.1,256.5,406.1z"/>
<path class="st1" d="M256.9,365.2c-37.8,0-75.6,0-113.4,0c-1.5,0-3,0.2-4.5-0.1c-3.6-0.7-6-2.8-6.3-6.6c-0.3-4.1,1.8-6.7,5.5-7.8
	c1.5-0.5,3.3-0.3,5-0.3c75.8,0,151.6,0,227.3,0c1.3,0,2.7-0.2,4,0.1c4,0.8,6.6,3.1,6.6,7.5c-0.1,4.3-2.6,6.6-6.8,7.3
	c-1.3,0.2-2.7,0.1-4,0.1C332.5,365.2,294.7,365.2,256.9,365.2z"/>
<path class="st1" d="M256.3,446.5c-37.5,0-74.9,0-112.4,0c-8.1,0-11.2-2-11.3-7.2c-0.1-5.3,3.1-7.3,11.2-7.3c75.4,0,150.8,0,226.3,0
	c1.7,0,3.3,0,5,0.2c4.1,0.6,6.1,3.2,6,7.2c-0.1,3.8-2,6.3-5.9,6.8c-2,0.3-4,0.2-6,0.2C331.5,446.5,293.9,446.5,256.3,446.5z"/>
<path class="st1" d="M232.9,78.5c0-13.9,11.1-25.2,24.3-25c13.1,0.2,23.7,11.4,23.7,25.1c0,14.1-10.6,25.2-24.1,25.3
	C243.6,103.9,232.8,92.5,232.9,78.5z M266,78.5c-0.1-5.9-4-10.2-9.2-10.1c-5.4,0.1-9.3,4.6-9.1,10.8c0.1,5.5,4.1,9.9,9,10
	C262,89.2,266.1,84.5,266,78.5z"/>
<path class="st4" d="M256.5,317.2c-15.2,0-30.3-0.1-45.5,0.1c-3.5,0-5.1-0.6-4.9-4.5c0.5-8.8-0.6-17.7,0.6-26.4
	c1.1-8,7.5-14.3,15.5-15.1c4.4-0.5,9-0.3,13.5-0.5c1.8-0.1,3,0.8,4.3,2.1c9.9,9.3,22.5,9.4,32.6,0.2c1.7-1.6,3.4-2.4,5.7-2.3
	c4.2,0.2,8.3,0,12.5,0.4c9.1,1,15.7,7.7,16.1,16.7c0.4,8.8,0.1,17.6,0.3,26.5c0.1,3.6-2.1,3-4.2,3
	C287.5,317.2,272,317.2,256.5,317.2z"/>
<path class="st4" d="M257.7,236.2c-8.3,0.1-15.6-5.2-18.4-13.5c-1-2.9-2.1-5.4-5.2-6.8c-2.7-1.3-2.7-4.2-2-6.6
	c1-3.4,3.7-5.8,7.1-5.9c7.6-0.2,14.3-2.5,20.5-6.5c1.4-0.9,2.6-1.2,4.1-0.2c3,1.9,6.3,2.8,9.7,3.6c1.8,0.4,8.2,8.6,8.3,10.5
	c0.1,1.7,0,3.9-1.5,4.5c-4.5,1.9-5.2,6-6.9,9.7C270.2,231.8,264.6,235.5,257.7,236.2z"/>
<path class="st3" d="M283.7,186.5c-1.9-0.2-3.8-0.4-5.8-0.5c-3.8-0.2-7-1.4-9.6-4.5c-3.6-4.2-7.4-4.4-11.6-0.7
	c-6.4,5.7-13.4,9.1-22.2,7.6c-1.5-0.3-3.2,0.5-5.2,0.9c-0.5-2.3,0-4.4,0.3-6.7c1.3-8.2,3.2-11.8,12.9-7.8c2.6,1.1,4.9,0.2,7.1-1.1
	c3-1.7,6.1-3.4,9.4-4.4C270.8,165.8,282.6,174,283.7,186.5z"/>
<path class="st0" d="M266,78.5c0.1,6.1-4,10.8-9.3,10.7c-4.9-0.1-8.8-4.5-9-10c-0.2-6.1,3.7-10.7,9.1-10.8
	C262,68.3,266,72.6,266,78.5z"/>
</svg>
