<?xml version="1.0" encoding="utf-8"?>
<!-- Generator: Adobe Illustrator 25.3.0, SVG Export Plug-In . SVG Version: 6.00 Build 0)  -->
<svg version="1.1" id="Capa_1" xmlns="http://www.w3.org/2000/svg" xmlns:xlink="http://www.w3.org/1999/xlink" x="0px" y="0px"
	 viewBox="0 0 385 385" style="enable-background:new 0 0 385 385;" xml:space="preserve">
<style type="text/css">
	.st0{fill:#020203;}
	.st1{fill:#FDCE86;}
	.st2{fill:#F9B87F;}
	.st3{fill:#928392;}
	.st4{fill:#7A6D7A;}
	.st5{fill:#7B6E7A;}
	.st6{fill:#DFEFF5;}
	.st7{fill:#F2FAFE;}
	.st8{fill:#7A6D79;}
	.st9{fill:#040405;}
	.st10{fill:#050406;}
	.st11{fill:#030305;}
	.st12{fill:#E0EFF5;}
	.st13{fill:#F297A1;}
</style>
<path class="st0" d="M23.7,1h316.6c13.2,1.8,18.3,11.9,19,23.5c0.1,2,0.1,4,0.1,6c0,93.8,0,187.6-0.1,281.4c0,4.8,2,9.3,5.6,12.4
	c2.6,2.3,5,4.8,7.2,7.6c11.9,15.2,8.8,39.6-10.5,50.4c-3.4,1.9-7.2,1.8-10.8,2.7h-10.5c-10-0.7-16.8-6.8-22.9-13.9
	c-2.6-3-2.5-5.3,0-9.1c4.1-2.7,6.9-2.6,10.4,0.5c1.3,1.2,2.6,2.4,3.7,3.7c7,8,23.3,8.5,30.3-2.4c5.3-8.5,4.9-17.7-1.9-24.8
	c-13.2-13.8-26.9-27.1-40.3-40.6c-2-2-3.6-1.7-5.4,0.2c-4.6,4.7-9.3,9.3-14,14.1c-2.8,2.7-5.4,5.5-8.2,8.1c-2.3,2.1-2.2,3.8-0.1,5.9
	c5,5,10.1,9.9,15,15c3.9,4.1,3.7,7.9-0.4,11.5c-3.4,1.9-6.2,0.9-8.8-1.5c-3.3-3.1-6.5-6.2-9.5-9.5c-2.8-3.1-6-4.2-10.2-4.2
	c-47.6,0.1-95.2,0.1-142.8,0.1c-35.5,0-71,0-106.6,0c-9.2,0-16-3.9-20.7-11.7c-1.7-2.8-2.6-5.9-2.6-9.2c0-15.2-0.1-30.5,0-45.7
	c0-5.2,1.5-7,6.4-8.1c5.3,0.9,7.1,2.9,7.1,8.7c0.1,12.5,0,25,0,37.5c0,1.6,0,3.3,0.1,4.9c0.5,6.2,3.8,9.6,10,10
	c1.5,0.1,3,0.1,4.5,0.1c78.7,0,157.4,0,236.1,0c1.1,0,2.2,0,3.4,0c2.1,0,2.9-0.9,3.6-2.9c1.6-4.5,1.5-8.2-2.9-11
	c-0.8-0.6-1.6-1.2-2.3-1.9c-1.9-2.3-3.9-2.2-6.6-1.1c-11.4,5-20.9,3.5-29.2-5.8c-4.9-5.5-9.1-6.3-16.3-3.9
	c-39.3,13-75.9,6.8-108.6-18.7C86,260,71.7,234.3,67.9,203.4c-4.4-36.4,6.5-68.1,31.9-94.6c19.6-20.4,43.7-31.8,71.6-34.4
	c28.6-2.6,55.1,4.4,78.3,21.7c26.5,19.8,42.2,46.2,46.5,79.1c2.5,19,0,37.4-7,55.2c-1.4,3.5-0.9,5.9,1.9,8.2c1.3,1,2.3,2.3,3.4,3.4
	c8.3,8.7,10.9,18.6,5.8,29.9c-1.2,2.6-0.9,4.6,1.3,6.4c0.7,0.6,1.3,1.2,1.9,1.9c2.7,3.6,5.6,5.1,10.4,3.2c5.2-2.1,10,0.2,14,4
	c4.9,4.7,9.5,9.5,14.3,14.3c0.9,0.8,1.6,1.8,2.7,2.5c0.7-1.1,0.4-2.1,0.4-3.1c0-80.5,0-161,0-241.5c0-0.5,0-1,0-1.5
	c-0.1-4-0.3-4.3-4.3-4.3c-11.9,0-23.7,0-35.6,0c-4.4,0-8.7,0.1-13.1-0.1c-4.3-0.2-5.8-1.5-6.9-5.9c0.3-5.5,2.1-7.4,8-7.5
	c15.1-0.1,30.1,0,45.2,0c1.2,0,2.5,0,3.7-0.1c1.8-0.1,2.7-1,2.7-2.8c0.1-5.1,0.4-10.2-0.2-15.3c-0.5-5.2-4-7.4-8.7-8.3
	c-1.7-0.6-3.4-0.5-5.2-0.5c-97.9,0-195.8,0-293.7,0c-3.6,0-7.2-0.1-10.8,0.9c-4.3,1.1-7.3,5-7.5,9.4c-0.3,4.4,0,8.7-0.1,13.1
	c0,2.6,1.2,3.6,3.6,3.6c5.5,0,11,0.2,16.5,0.2c75.2,0,150.4,0,225.6,0c4.8,0.6,6.5,2.3,7.1,7c-0.4,3.8-2.6,5.8-6.3,6.4
	c-74.7,0.1-149.4,0-224.1,0c-6,0-12,0.2-18,0.2c-3.9,0-4.3,0.4-4.3,4.3c-0.1,5.5,0,11,0,16.5c0,53.9,0,107.7,0,161.6
	c0,1.9,0.1,3.8-0.1,5.6c-0.4,4.6-2.2,6.5-6.9,7.4c-4.3-0.8-6.2-2.7-6.6-6.8c-0.1-1.1-0.1-2.2-0.1-3.4c0-71.9,0-143.9,0-215.8
	c0-8.5,3.1-15.2,10.3-20C18.1,1.9,21,1.7,23.7,1z"/>
<path class="st1" d="M265.8,52.5c2.7-0.9,4.3-2.6,4.6-5.5c5.2-1.3,10.3-2.1,15.3,0.6c0.9,3.9,3.5,5,7.2,5c16.6-0.1,33.2,0,49.8-0.1
	c2.6,0,3.3,0.7,3.3,3.3c-0.1,82.8-0.1,165.7-0.1,248.5c0,0.6,0,1.2,0,2.5c-1.2-1.1-2-1.8-2.7-2.5c-5.5-5.5-10.9-11-16.4-16.5
	c-4.8-4.7-10.4-5.8-16.4-2.7c-1.9,1-2.9,0.8-4.1-0.8c-0.8-1-1.7-1.9-2.7-2.7c-4.8-3.7-6.7-7.2-3.6-13.9c4-8.5,1-16.9-5.2-23.8
	c-2.7-3.1-7.3-5.5-8.1-9c-0.8-3.4,2.3-7.5,3.5-11.4c20.8-65.2-20.1-134.1-87.3-147c-60.8-11.7-120.2,28.1-133,89.2
	c-12.8,60.8,26.8,121.6,87.8,134.6c23,4.9,45.5,2.9,67.3-6.2c2.2-0.9,3.5-0.9,5.1,1c2,2.4,4.3,4.5,6.6,6.6c8.4,7.8,18.1,9.2,28,3.9
	c2.8-1.5,4.3-1.4,6.1,1c0.7,0.9,1.6,1.5,2.4,2.3c-0.3,1.6-1.6,1.6-2.7,1.7c-0.7,0.1-1.4,0.1-2.1,0.1c-73.4,0-146.8,0-220.2,0
	c-12.4,0-14.9-2.5-14.9-14.9c0-78.3,0-156.6,0-234.9c0-8.1,0-8.1,8.1-8.1c73.3,0,146.6,0,219.9,0C262.9,52.7,264.4,52.9,265.8,52.5z
	"/>
<path class="st2" d="M266.1,52.5c-1.4,1.1-3.1,0.6-4.7,0.6c-73.8,0-147.6,0-221.4,0c-5,0-5,0-5,5c0,80.2,0,160.4,0,240.6
	c0,8.2,2.6,10.8,10.7,10.8c74.6,0,149.1,0,223.7,0c1.4,0,3,0.5,4.3-0.6c2.2,1.2,3.6,3.3,5.4,5c0.6,0.5,0.9,1.2,0.4,2
	c-1.6,2.5-2.3,5.2-2.2,8.2c0.1,1-0.6,1.2-1.5,1.2c-0.9,0-1.7,0-2.6,0c-80.6,0-161.3,0-241.9,0c-10.1,0-13.6-3.6-13.6-13.7
	c0-13.2,0-26.5,0-39.7c0-5.5-0.8-6.4-6.3-8.1c0.3-8.2,0.3-7.3,0.6-15.5c4.5-1,5.7-2.5,5.7-7.4c0-61.2,0-122.4-0.1-183.6
	c0-3.7,0.8-4.7,4.6-4.7c80.9,0.1,161.8,0.1,242.7,0.1C265.4,52.4,265.7,52.4,266.1,52.5z"/>
<path class="st3" d="M286.1,47.5c-5.1-1.2-10.2-0.3-15.3-0.6c-0.2-3.4-1.9-5.5-5.4-6c-1.5-0.5-3-0.3-4.4-0.3
	c-73.9,0-147.9,0-221.8-0.1c-1.7,0-4.1,1.1-4.9-1.5c-0.8-2.5-1.1-5.2,1.4-7.2c0.6-0.3,1.3-0.7,1.9-1c2.1-0.9,3.6-2.3,3.3-4.8
	c-0.2-2.3-1.6-3.8-3.9-4.4c-1.3-0.3-2.7-0.7-3-2.3c-0.3-1.1-0.3-2.2-0.3-3.4c0-2.8,1-4.1,4.3-4.1c98.7,0.1,197.4,0.1,296.1,0.1
	c0.9,0,1.7-0.1,2.6,0.2c5.8,0.6,9.4,4.4,9.5,10.4c0.1,5-0.1,10,0.1,15c0.1,2.8-0.9,3.3-3.4,3.2c-16.6-0.1-33.1-0.1-49.7,0
	C288.1,41,286.6,42.4,286.1,47.5z"/>
<path class="st3" d="M94,136.9c11.5-20.3,28.3-34.7,49.8-43.2c59.9-23.8,124.9,11.3,138.6,74.6c8.9,41-10.7,86-46.7,107.6
	c-1,0.6-2,1-3,1.5c-36.3,13-70.3,7.9-101.4-14.5c-25.8-18.6-40.3-44.5-44-76.1c-1.8-15-0.3-29.9,4.4-44.3
	C92.3,140.5,93.7,138.9,94,136.9z"/>
<path class="st4" d="M94,136.9c-1.3,6.4-3.5,12.6-4.7,19.1c-3.4,19.6-1.5,38.5,5.3,57.1c6.4,17.4,16.8,32,30.7,43.9
	c15.5,13.3,33.4,21.8,53.8,24.8c7.6,1.1,15.3,1.9,23,1.3c9.6-0.8,19.1-2.6,28.4-5.6c0.7-0.2,1.5-0.1,2.2-0.2
	c-9.4,6.2-19.8,9.9-30.7,11.8c-37,6.5-68.9-3.6-94.9-30.9c-15.1-15.9-23.8-35-26.5-56.9c-2.6-21.4,1-41.6,11.1-60.7
	C92.4,139.4,93.2,138.1,94,136.9z"/>
<path class="st3" d="M299.8,311.6c5-5.1,10-10.1,14.9-15.2c1.6-1.7,3.1-1.7,4.7,0c13.8,14,27.9,27.8,41.5,42c6.8,7,7.1,17.2,1.7,25
	c-3.5,1.9-6.9,0.3-10.1-0.6c-4-1.1-7.5-3.3-10.5-6.3c-13.5-13.5-27-27-40.4-40.5C300.6,314.8,298.8,313.8,299.8,311.6z"/>
<path class="st4" d="M299.8,311.6c0,1.6,1.2,2.4,2.2,3.3c13.7,13.7,27.4,27.5,41.1,41.2c5.4,5.3,12.1,7.4,19.6,7.3
	c-6.4,10.4-21.4,12.5-30.5,4.3c-1.7-1.5-3.2-3.1-4.8-4.7c-3.4-3.3-5.3-3.6-9.6-1.1c-3.4-3.7-6.8-7.4-10.6-10.6
	c2.5-3.9,2.4-6.2-0.9-9.5c-5.1-5.1-10.1-10.3-15.3-15.3c-2.3-2.3-2.8-4-0.1-6.4C294.1,317.5,296.9,314.5,299.8,311.6z"/>
<path class="st5" d="M336.7,12.5c-1.7,0.1-3.5,0.2-5.2,0.2c-96.7,0-193.4,0-290.1,0c-6.5,0-6.5,0-6.4,6.6c0,0.5,0,1,0,1.5
	c-0.1,0.8-0.7,1.3-1.2,1.8c-3.5,3.7-2.8,6.7,2,8.7c0.6,0.2,1.2,0.4,1.5,1c-3.6,1.2-2.3,4.3-2.1,6.6c0.2,2.5,2.5,1.4,3.9,1.4
	c73.9,0.1,147.8,0,221.7,0.1c1.6,0,3.3-0.5,4.7,0.6c-1.5,0-3,0.1-4.5,0.1c-73.8,0-147.6,0-221.4,0c-6.4,0-12.7-0.1-19.1,0
	c-2.1,0-2.8-0.6-2.8-2.8c0.1-4.7,0-9.5,0-14.2c0-7.5,3.8-11.6,11.3-12c3.1-0.2,6.2-0.1,9.3-0.1c97.8,0,195.7,0,293.5,0
	C333.6,12,335.2,11.5,336.7,12.5z"/>
<path class="st6" d="M264.9,290.8c-8,9.3-15,8.4-25.6-3.5c17.3-10.3,31-24,41.4-41.6c2.2,2.4,4.3,4.6,6.4,6.8
	c-6.6,10.9-15,20.4-24.4,29c-3.2,2.9-3.2,3-0.2,6.1C263.4,288.6,264.6,289.4,264.9,290.8z"/>
<path class="st7" d="M264.9,290.8c-7.2-5.2-7.3-5.6-1.3-11.4c7.9-7.6,15.2-15.6,21.1-24.8c0.6-0.9,1-2.1,2.4-2.1
	c4.2,5.2,4.4,11.6,0,16.2C279.9,276.2,272.4,283.5,264.9,290.8z"/>
<path class="st8" d="M300,294.5c-0.4,0.5-0.7,0.9-1,1.3c-3.2,3.2-6.4,6.3-9.4,9.5c-1.1,1.1-1.7,0.9-2.6-0.1
	c-2.7-2.8-5.4-5.5-8.2-8.2c-1.2-1.2-1.5-2-0.1-3.3c3.1-3,6.2-6.1,9.2-9.2c0.8-0.8,1.4-1.2,2.4-0.2c2.9,3,6,6,8.9,9
	C299.5,293.6,299.7,294,300,294.5z"/>
<path class="st9" d="M37.3,32.2c-3.4,0.1-5.9-1.3-6.6-4.7c-0.7-3.4,1.3-5.5,4.3-6.9c4.5,0.3,7,1.9,7.2,5.2
	C42.4,29.3,40.7,31.5,37.3,32.2z"/>
<path class="st10" d="M66.3,26.7c-0.1,3.2-2.9,5.7-6.2,5.5c-3.1-0.2-5.6-2.8-5.5-5.9c0.1-3.2,2.9-5.7,6.2-5.5
	C63.9,21,66.4,23.6,66.3,26.7z"/>
<path class="st11" d="M84.6,32.2c-3.3,0-5.8-2.4-5.9-5.5c-0.1-3.2,2.6-5.9,5.9-5.8c3.2,0.1,5.7,2.6,5.7,5.7
	C90.3,29.7,87.7,32.2,84.6,32.2z"/>
<path class="st0" d="M147.9,116.1c-0.9-4.3,0.3-6.7,4.3-8.2c48.8-18.6,104.4,12.5,114.1,63.9c8.9,47.6-21.1,92.2-68.3,101.5
	c-47.5,9.3-94.8-24.6-100.9-72.5c-3.8-30.1,5.6-55.5,27.7-76.2c3.7-3.4,5.7-3.5,9.8-0.3c2.6,3,2.2,6.6-1.3,9.6
	c-7.5,6.5-13,14.4-17.4,23.2c-13.2,26.8-7.5,61.1,13.3,82.3c12.7,12.9,27.9,20.7,45.7,22.3c21.8,2,41.1-4.5,57.2-19.7
	c15.8-14.9,23.5-33.4,23.2-54.9c-0.2-17.5-6.3-33.2-18-46.5c-12.1-13.8-27.1-22.2-45.3-24.6c-11.8-1.6-23.6-0.8-35,3.5
	C152.2,121.4,149.4,120.3,147.9,116.1z"/>
<path class="st12" d="M147.9,116.1c2.1,3.4,5,3.9,8.7,2.7c43.4-14.8,87.3,9.2,98,53.6c9.6,39.5-17.4,81.5-57.3,89.1
	c-40.8,7.8-78.7-16.3-87.7-56.8c-6.1-27.6,2-51.5,22.4-70.9c3-2.8,4.5-5.5,2.5-9.4C138.6,120.9,143.1,118.3,147.9,116.1z"/>
<path class="st7" d="M181.7,255.5c-34.7,1.1-68.2-29.9-66.6-68.9c1.4-35.7,29.1-65.1,67.3-65.1c37.1,0.1,67.6,29.7,66.6,69.9
	C248.2,225.6,218.3,256.6,181.7,255.5z"/>
<path class="st0" d="M233.4,157.8c0.2,3.5-1.5,6.2-3.9,8.5c-6.7,6.7-13.3,13.5-20.2,20.1c-2,1.9-1.7,2.9,0.1,4.6
	c6.7,6.5,13.3,13.2,19.9,19.8c5.7,5.8,5.7,11.5,0,17.3c-2.7,2.8-5.4,5.5-8.2,8.2c-5.5,5.3-11.2,5.3-16.7-0.1
	c-6.8-6.8-13.6-13.5-20.3-20.4c-1.6-1.7-2.5-1.7-4.1,0c-6.6,6.8-13.3,13.5-20.1,20.1c-5.8,5.8-11.4,5.8-17.2,0.1
	c-2.7-2.6-5.3-5.3-7.9-7.9c-5.8-6-5.8-11.5,0.2-17.6c6.4-6.5,12.7-13,19.4-19.3c2.4-2.2,2-3.4-0.1-5.4c-6.6-6.3-12.9-12.8-19.3-19.3
	c-5.9-6-5.9-11.5,0.1-17.5c2.7-2.8,5.4-5.5,8.2-8.2c5.3-5.2,11.1-5.2,16.4,0.1c6.8,6.7,13.7,13.5,20.3,20.4c1.6,1.7,2.5,1.9,4.2,0.1
	c6.5-6.7,13.2-13.3,19.8-19.9c6.1-6.1,11.6-6,17.7,0.1c2.9,2.9,5.9,5.8,8.7,8.7C232.4,152.4,233.5,154.8,233.4,157.8z"/>
<path class="st13" d="M221.3,157.7c-0.2,1.2-1.2,1.7-1.8,2.4c-7.5,7.5-15,15-22.5,22.5c-5,5-5,7.2,0.1,12.4
	c7.5,7.5,14.9,15.1,22.5,22.5c1.6,1.6,1.9,2.5,0,4.1c-2.4,2-4.4,5.7-6.8,6c-2.6,0.3-4.5-3.7-6.7-5.9c-6.3-6.2-12.5-12.5-18.8-18.8
	c-4-4-6.5-4-10.5-0.1c-7.8,7.7-15.6,15.5-23.2,23.3c-1.8,1.9-3,2-4.6,0c-1.9-2.3-5.5-4.2-5.7-6.5c-0.2-2.5,3.6-4.4,5.6-6.5
	c6.4-6.5,12.9-12.9,19.3-19.4c3.5-3.5,3.5-6.5,0.1-10c-7.9-8-15.8-16-23.8-23.8c-1.7-1.6-1.8-2.6,0-4.1c2.5-2,4.4-6.2,7-6.1
	c2.3,0.1,4.5,3.9,6.7,6.1c6.2,6.2,12.3,12.4,18.5,18.5c4.1,4.1,6.6,4.2,10.7,0.1c7.7-7.7,15.4-15.3,22.9-23.1c2.1-2.2,3.3-2,5.1,0.1
	c1.4,1.7,3.1,3.2,4.7,4.8C220.5,156.8,220.9,157.2,221.3,157.7z"/>
</svg>
