<?xml version="1.0" encoding="utf-8"?>
<!-- Generator: Adobe Illustrator 25.3.0, SVG Export Plug-In . SVG Version: 6.00 Build 0)  -->
<svg version="1.1" id="Capa_1" xmlns="http://www.w3.org/2000/svg" xmlns:xlink="http://www.w3.org/1999/xlink" x="0px" y="0px"
	 viewBox="0 0 1343 340" style="enable-background:new 0 0 1343 340;" xml:space="preserve">
<style type="text/css">
	.st0{fill:#030203;}
	.st1{fill:#00A4FF;}
	.st2{fill:#FF3C00;}
	.st3{fill:#946034;}
	.st4{fill:#956034;}
	.st5{fill:#452A17;}
	.st6{fill:#D37D00;}
	.st7{fill:#FF9D00;}
	.st8{fill:#F7FAF4;}
	.st9{fill:#050303;}
	.st10{fill:#050404;}
	.st11{enable-background:new    ;}
	.st12{fill:#EFEFEF;}
</style>
<g>
	<path class="st0" d="M286.1,145.4c26-5.6,52-11.1,78-16.7c10.8-2.3,20.9,4.2,23.1,15.2c2.2,10.6-4.8,21.4-15.2,23.3
		c-25.3,5.3-51.6,9.4-75.9,16.8c32.4,0,64.3,0,96.5,0c23.4,0.5,27.7,28,8.3,38.8c7.9,3.9,12.5,10.1,12.3,19.2
		c0,11.5-10.6,19.8-21.7,19.2c-21.8,0-43.6,0-65.5,0.6c12.2,3.1,24.4,6.1,36.6,9.4c14.9,3.4,13.4,27.6-1.2,30.4
		c-27.5-3.2-54.3-14.1-82-17.2c11.5,6.4,5.6,23.7-3.5,29.6c-7.1,4.3-19.9-8.6-28-11.6c4.1,57.5-92.5,35-56,0.1
		c-37.6,12.3-81.7,23.7-109.4-13.7c-1.6-2.1-2.7-2.5-5.2-1.3c-14.3,6.7-29.5,7.2-45,6.6c-2.9-0.1-3.5-1.5-3.5-4.2
		c0.1-15.3,0.1-30.6,0-46c0-2.9,1.1-4,3.8-4.6c11.2-2.7,21.2-7.8,29.6-15.7c1.5-1.4,2.8-2.7,3-5c4.2-48.4,31.3-92.3,27.9-141.8
		c-0.6-10.8-2.9-21.1-9.3-30.1c-10.2-14.2-33.1-19.2-44.2-6.6c48.4-10,38.8,53.8-7.9,41.8C8.1,75.3-2.1,50.1,9.8,28.3
		C39.7-19,115.2,1.8,122.1,63.5c5.7,34.8-3.1,68-12.3,101.3c6.9-2.3,13.4-3.2,17.4-10.6c10-18.2,19.9-36.5,28.7-55.3
		c7.3-15.9,26.8,8.8,18.5,21.6c-2.1,4.8-4.4,9.6-5.8,15c23.4-21,46.3-42.7,67.8-65.7c14.2-15.6,32,13.1,18,24.5
		c-9.5,10.5-19.6,20.4-30.6,31.2c36.6-12.6,71.1-24.2,107.1-37.2c7.6-2.8,13.8-1.2,19.2,4c11.6,9.9,5.5,30.3-9.3,33.3
		c-19.3,5-37.6,12.8-56.6,18.8c-1.4,1.8-3.9,1.4-5.5,2.6c-0.7,0.3,0.5,0.6,0,0.1C280.9,145.4,283.7,146.2,286.1,145.4z"/>
	<path class="st1" d="M56,252.7c-7.5,1.6-15.8,4.1-23.4,3.4c-1.5-3.8-0.4-7.9-0.7-11.8c-0.2-2.5,1.9-2.3,3.4-2.8
		c11.5-3.4,21.9-8.8,30.3-17.5c1.2-1.2,2.3-2.3,2.4-4.2c3.3-45.1,27.4-85.8,28.1-131.3c3.9-29.4-15-67.8-48.7-57.5
		c-7.3,2.2-12.6,6.6-14.6,14.3c-1.4,2.2,0.9,8.9,3.4,4.9c6.9-10,18.3-11.3,27.6-3.2c14.6,15.5-7.6,37-26.3,32.5
		C-11.9,68.7,6.3,8.1,50.3,6c65.8-6.7,79.5,70.9,65.7,121.2c-5.1,36-24.8,68.6-28.7,104.4c-1.3,55.3,71.6,85.7,109.8,46.5
		c2.8-2.8,5.5-3.7,9.2-3.1c20.2,1.3,44.9,17.4,37,40.5c-6.8,21-36.1,24.2-51.6,11.1c-13.7-9.9,2.8-29.6,15.1-19.4
		c8.2,6.4,21.4-0.5,5.8-5.4c-26.4-9.7-50.2,11.4-77,9.4c-21.6-0.4-39.1-8.6-51.8-26.1c-1.9-2.6-3.2-3.1-6.3-1.5
		c-5.9,4.6-42.8,11.5-45.5,5c-1.2-6.5,0.1-8.7,6.6-9.9c9.1-1.7,18.2-4.2,26-9.1c-4,1.9-34.9,11.9-32.6,2.8
		c-0.1-11.9-0.2-11.8,11.4-14.5c6.5-1.5,13.7-4.1,19.4-7.2C60.8,250.7,58.7,253,56,252.7z"/>
	<path class="st2" d="M152.5,168.6c81.9,1.3,81.8,122.2,0.1,124.1C71.1,291.2,70.4,170,152.5,168.6z"/>
	<path class="st3" d="M103.8,182.3c2.7-5.4,1.9-13.9,8.4-15c73.2-25.4,146.3-50.8,219.5-76.2c9.5-3.3,17.5,1,20.7,10.6
		c1.2,3.7,0.4,5.7-3.6,6.9c-61.2,18.6-122.6,36.7-183.7,55.5c-19.5,2-36.2,1.3-52.5,14.7C110.2,180.8,107.5,181.8,103.8,182.3z"/>
	<path class="st3" d="M313.5,241.8c-30.5,0-61-0.1-91.4,0.1c-4.2,0-5.7-0.8-4.6-5.3c1.9-3.7-2.6-12.6,3.8-12.5
		c56.6,0.1,113.3,0,169.9,0c9.6,0,15.9,4.4,18.3,12.4c1.1,3.8,0.5,5.4-4,5.3C374.9,241.7,344.2,241.8,313.5,241.8z"/>
	<path class="st3" d="M190.1,176.9c56.3-22.9,115.8-32.3,174.7-45.3c7.7-1.7,14.7,1.8,18.1,8.9c2.9,6.1,1.8,8.2-4.7,9.4
		C320.1,160.8,262,171.5,204,183C197.4,184.4,194.6,180.4,190.1,176.9z"/>
	<path class="st4" d="M310.5,203.9c-31.6,0-63.2,0-94.9,0c-1.6-0.1-3.8,0.4-4-1.8c-0.2-2.1,2.1-1.8,3.4-2c20.1-4.4,40.2-8.8,60.4-13
		c39-0.9,78.2-0.1,117.3-0.3c8.3,0,14,4,16.5,11.2c1.9,5.5,1.5,6-4.2,6C373.4,203.9,342,203.9,310.5,203.9z"/>
	<path class="st5" d="M212.7,257.9c2.4-11.7,3.8-13.1,15.9-12.8c59.7,0.7,121-1.4,180,0.8c-0.1,8.3-11.1,12.4-18.4,12
		C331,257.9,271.9,257.9,212.7,257.9z"/>
	<path class="st5" d="M311.5,206.9c32.1,0.7,65.6-1.4,97.1,0.7c0,7.9-10,12.4-17.2,12.1c-56.3,0.1-112.6-0.2-168.9,0.1
		c-4.3,0.1-6-1.1-6.8-5.5c-1.4-7.5-1.7-7.4,5.9-7.4C251.6,206.9,281.5,206.9,311.5,206.9z"/>
	<path class="st5" d="M201.2,186.5c61.2-11.6,121.6-23.1,182.5-34.6c-2.2,6.8-6.5,10.7-12.8,11.8c-52.8,10.4-105.2,22.3-157.8,33.7
		C206.4,198.9,205.5,190.7,201.2,186.5z"/>
	<path class="st6" d="M234.8,261.1c43.7-1,85.3,9.9,126.1,23.6c2.4,1.6,8.5,1.5,7.9,5.2c-0.5,4.2-3.8,6.9-8,8
		c-29.8-4.6-59.4-14.4-89.5-19.2C258.9,273.9,248.3,266.7,234.8,261.1z"/>
	<path class="st5" d="M352.5,110.8c-2.8,5.9-5.9,9.8-11.1,11c-19.7,4.8-38.5,12.6-57.6,19.1c-31.3,10.6-62.5,21.6-93.7,32.5
		c-6.5,2.3-13.8-5.3-22.6-6.7C229.6,147.9,290.5,129.6,352.5,110.8z"/>
	<path class="st7" d="M161.9,146.7c24.5-25.5,53.1-48.3,76.9-75.2c2.6-2.8,5.2-4.5,9.1-2.7c18.9,5.7-44,58.2-51.4,65.3
		C185.6,139.5,173.8,142.1,161.9,146.7z"/>
	<path class="st6" d="M204.1,271.6c3.9-8,3.9-8,11.3-5.2c21.6,8,43,17.4,60.8,32.4c2.8,2.2,5.5,4.2,2,8.4c-3.8,4.5-5.8,5.3-10.4,2.7
		c-3-1.7-6-3.5-9.1-5.2C233.4,290.5,242.8,274.6,204.1,271.6z"/>
	<path class="st3" d="M128.4,157.8c11.4-19.1,21.5-38.2,30.4-57.9c1-2.2,2.3-3.9,4.9-2.7c2.6,1.3,5.6,2.4,4.6,6.5
		c-2.9,13.1-9.2,24.9-15.1,36.8C149.1,152,139.8,155.6,128.4,157.8z"/>
	<path class="st7" d="M370,285c-28.7-12.2-58.2-18.2-89.2-23.8c28.6-3.4,52.8,6.1,79.6,12.2C366.2,274.9,369,278.5,370,285z"/>
	<path class="st7" d="M281.6,299.2c-20.7-18.5-45.1-28.3-69.7-38c23.8-2.5,44.2,15.5,64.8,25.2C281.9,289.5,282.9,293.2,281.6,299.2
		z"/>
	<path class="st6" d="M255.1,76.6c1.9,6.3,1.3,10.6-2.6,14.8c-10.9,11.7-22.2,22.9-33.6,34c-4,3.9-9.2,4.2-13.9,6.1
		C223.1,114.9,240.8,98,255.1,76.6z"/>
	<path class="st5" d="M171.2,104.8c2.9,4.6,3,8.1,1.2,12.2c-4.7,7.7-12,33.2-21.1,33C159.6,135.5,167,121.3,171.2,104.8z"/>
	<path class="st8" d="M208.1,303.6c3,1.2,5.1,0.9,6.6,2.9C212.3,306.6,210.4,306.3,208.1,303.6z"/>
	<path class="st9" d="M152.2,269c-50.4-0.3-49.8-77.4,0.6-77.1C203,192.6,203,269.2,152.2,269z"/>
	<path class="st7" d="M152.4,265.9c-46.1-0.2-46.1-70.5,0-70.9C199,195.9,199.3,265.2,152.4,265.9z"/>
	<path class="st10" d="M169.2,230.3c0.3,22.1-33.3,22.3-33.4,0.3C135.9,208.8,168.9,208.6,169.2,230.3z"/>
	<path class="st5" d="M152.4,243.9c-17.8,0.3-17.3-27.4,0.3-27C169.8,217.7,170.6,243.8,152.4,243.9z"/>
</g>
<g class="st11">
	<path class="st12" d="M471.7,230.4v-25.9h35.1v-25.9h-81.9v-77.8h105.3v25.9h-81.9v25.9h81.9v77.8H471.7z"/>
	<path class="st12" d="M553.6,230.4v-77.8h105.3v77.8h-23.4v-51.9H577v25.9h35.1v25.9H553.6z"/>
	<path class="st12" d="M682.3,282.3V152.6h105.3v77.8h-58.5v-25.9h35.1v-25.9h-58.5v103.8H682.3z"/>
	<path class="st12" d="M811.1,230.4v-77.8h105.3v77.8H893v-51.9h-58.5v25.9h35.1v25.9H811.1z"/>
	<path class="st12" d="M986.6,282.3v-25.9h35.1v-25.9h-81.9v-77.8h105.3v25.9h-81.9v25.9h81.9v77.8H986.6z"/>
	<path class="st12" d="M1068.5,282.3V152.6h105.3v77.8h-58.5v-25.9h35.1v-25.9h-58.5v103.8H1068.5z"/>
	<path class="st12" d="M1197.2,230.4v-77.8h105.3v77.8h-23.4v-51.9h-58.5v25.9h35.1v25.9H1197.2z"/>
</g>
</svg>
